<svg xmlns="http://www.w3.org/2000/svg" width="423.927" height="79.009" viewBox="0 0 423.927 79.009">
  <g id="Grupo_991542" data-name="Grupo 991542" transform="translate(-855.807 -4757.991)">
    <path id="Trazado_677264" data-name="Trazado 677264" d="M16.04,0,395-.009,415.233,18.52-8.693,21.194Z" transform="translate(864.5 4758)" fill="#ccac12"/>
    <path id="Trazado_681807" data-name="Trazado 681807" d="M0,0H365V32a37,37,0,0,1-37,37H37A37,37,0,0,1,0,32Z" transform="translate(885.5 4768)" fill="#e6e1dd"/>
    <path id="Trazado_681808" data-name="Trazado 681808" d="M0,0H379V32a37,37,0,0,1-37,37H37A37,37,0,0,1,0,32Z" transform="translate(881 4758)" fill="#ffd817"/>
    <path id="Trazado_681809" data-name="Trazado 681809" d="M75.727,13.148a4.154,4.154,0,0,1-.641,2.1,3.866,3.866,0,0,1-1.645,1.41,5.6,5.6,0,0,1-2.418.5A4.467,4.467,0,0,1,67.492,15.7,6.032,6.032,0,0,1,66.2,11.57v-.562a6.885,6.885,0,0,1,.582-2.926,4.41,4.41,0,0,1,1.676-1.937,4.676,4.676,0,0,1,2.531-.684,4.9,4.9,0,0,1,3.328,1.09,4.306,4.306,0,0,1,1.43,3H73.016a2.037,2.037,0,0,0-.523-1.492,2.153,2.153,0,0,0-1.5-.453,1.638,1.638,0,0,0-1.5.766,4.921,4.921,0,0,0-.5,2.445v.8a5.445,5.445,0,0,0,.457,2.6,1.672,1.672,0,0,0,1.574.781,2.106,2.106,0,0,0,1.445-.445A1.89,1.89,0,0,0,73,13.148Zm10.93-1.6a6.708,6.708,0,0,1-.617,2.945,4.561,4.561,0,0,1-1.754,1.973,4.884,4.884,0,0,1-2.59.691,4.953,4.953,0,0,1-2.578-.668,4.554,4.554,0,0,1-1.754-1.91,6.515,6.515,0,0,1-.66-2.852v-.641a6.738,6.738,0,0,1,.613-2.949,4.55,4.55,0,0,1,1.758-1.973,5.2,5.2,0,0,1,5.184-.008A4.632,4.632,0,0,1,86.02,8.113a6.544,6.544,0,0,1,.637,2.91Zm-2.789-.477A4.783,4.783,0,0,0,83.3,8.5a1.817,1.817,0,0,0-1.621-.879q-2.062,0-2.18,3.094l-.008.836a4.92,4.92,0,0,0,.555,2.57,1.814,1.814,0,0,0,1.648.9,1.792,1.792,0,0,0,1.6-.883,4.785,4.785,0,0,0,.57-2.539ZM82,2.578h2.781L82.609,5.031l-2.148,0ZM88.07,17V5.625h3.664a5.39,5.39,0,0,1,2.711.684,4.805,4.805,0,0,1,1.879,1.93,5.826,5.826,0,0,1,.684,2.793v.523a5.86,5.86,0,0,1-.66,2.8,4.826,4.826,0,0,1-1.859,1.938A5.271,5.271,0,0,1,91.813,17Zm2.742-9.258v7.148h.953a2.133,2.133,0,0,0,1.813-.84,4.116,4.116,0,0,0,.633-2.5v-.492a4.082,4.082,0,0,0-.633-2.484,2.17,2.17,0,0,0-1.844-.836ZM101.336,17H98.6V5.625h2.734Zm11.219-1.406a4.409,4.409,0,0,1-1.852,1.133,7.986,7.986,0,0,1-2.672.43,4.764,4.764,0,0,1-3.57-1.367,5.534,5.534,0,0,1-1.43-3.8L103.023,11a6.788,6.788,0,0,1,.594-2.934,4.409,4.409,0,0,1,1.7-1.93,4.807,4.807,0,0,1,2.559-.676,5.039,5.039,0,0,1,3.3.973,4.121,4.121,0,0,1,1.371,2.9h-2.641a2.157,2.157,0,0,0-.609-1.359,1.966,1.966,0,0,0-1.328-.406,1.789,1.789,0,0,0-1.594.875,4.672,4.672,0,0,0-.57,2.5v.688a4.574,4.574,0,0,0,.582,2.559,2.059,2.059,0,0,0,1.832.855,2.3,2.3,0,0,0,1.594-.477V12.8h-1.906V10.922h4.648Zm11.227-4.047a6.708,6.708,0,0,1-.617,2.945,4.561,4.561,0,0,1-1.754,1.973,4.884,4.884,0,0,1-2.59.691,4.953,4.953,0,0,1-2.578-.668,4.554,4.554,0,0,1-1.754-1.91,6.515,6.515,0,0,1-.66-2.852v-.641a6.738,6.738,0,0,1,.613-2.949A4.55,4.55,0,0,1,116.2,6.164a5.2,5.2,0,0,1,5.184-.008,4.632,4.632,0,0,1,1.762,1.957,6.544,6.544,0,0,1,.637,2.91Zm-2.789-.477a4.783,4.783,0,0,0-.566-2.574,1.817,1.817,0,0,0-1.621-.879q-2.062,0-2.18,3.094l-.008.836a4.92,4.92,0,0,0,.555,2.57,1.814,1.814,0,0,0,1.648.9,1.792,1.792,0,0,0,1.6-.883,4.785,4.785,0,0,0,.57-2.539ZM37.711,38.891h4.773V41H34.969V29.625h2.742Zm9.9,2.266A4.345,4.345,0,0,1,44.461,40a4.006,4.006,0,0,1-1.2-3.02v-.219a5.191,5.191,0,0,1,.48-2.289,3.516,3.516,0,0,1,1.4-1.535,4.233,4.233,0,0,1,2.188-.543A3.659,3.659,0,0,1,50.141,33.5a4.344,4.344,0,0,1,1.031,3.082V37.6H45.938a1.9,1.9,0,0,0,.617,1.117,1.836,1.836,0,0,0,1.234.406,2.366,2.366,0,0,0,1.953-.875l1.2,1.422a3.363,3.363,0,0,1-1.395,1.082A4.713,4.713,0,0,1,47.609,41.156Zm-.3-6.734q-1.156,0-1.375,1.531h2.656v-.2a1.3,1.3,0,0,0-.32-.98A1.275,1.275,0,0,0,47.313,34.422Zm8.3,2.891,1.406-4.766h2.82l-3.445,9.867-.148.359a2.617,2.617,0,0,1-2.594,1.641,4.126,4.126,0,0,1-1.086-.156V42.383h.344a1.8,1.8,0,0,0,.848-.16.973.973,0,0,0,.434-.575l.211-.563-2.937-8.538h2.813ZM69.648,36.6a2.781,2.781,0,0,1-1.906.766,3.078,3.078,0,0,1-2.453-1.047,4.124,4.124,0,0,1-.906-2.8,4.2,4.2,0,0,1,.508-2.031,3.81,3.81,0,0,1,1.426-1.484,3.887,3.887,0,0,1,2.027-.547,3.774,3.774,0,0,1,2.035.566,3.814,3.814,0,0,1,1.418,1.6,5.5,5.5,0,0,1,.523,2.387v1.008a6.838,6.838,0,0,1-.738,3.266,5.1,5.1,0,0,1-2.105,2.125,6.579,6.579,0,0,1-3.187.742h-.164V39.047l.5-.008Q69.344,38.906,69.648,36.6Zm-1.2-1.133a1.282,1.282,0,0,0,1.234-.742V33.633a2.844,2.844,0,0,0-.367-1.617,1.152,1.152,0,0,0-.992-.523,1.088,1.088,0,0,0-.93.594,2.638,2.638,0,0,0-.375,1.438,2.365,2.365,0,0,0,.383,1.418A1.224,1.224,0,0,0,68.453,35.469Zm13.172.883a5.431,5.431,0,0,1-1.035,3.555,4.045,4.045,0,0,1-5.855-.008A5.423,5.423,0,0,1,73.7,36.352V34.273a5.431,5.431,0,0,1,1.035-3.555,4.045,4.045,0,0,1,5.855.008,5.436,5.436,0,0,1,1.039,3.555Zm-2.633-2.414a4.057,4.057,0,0,0-.32-1.832,1.071,1.071,0,0,0-1.016-.605,1.045,1.045,0,0,0-.988.563,3.822,3.822,0,0,0-.332,1.7v2.906a4.088,4.088,0,0,0,.32,1.863,1.075,1.075,0,0,0,1.016.59,1.06,1.06,0,0,0,.992-.574,3.9,3.9,0,0,0,.328-1.8Zm10.359-4.477v2.07h-.117a3.953,3.953,0,0,0-2.426.707A2.985,2.985,0,0,0,85.641,34.2a3.079,3.079,0,0,1,2.25-.875,2.872,2.872,0,0,1,2.352,1.078,4.348,4.348,0,0,1,.875,2.828,3.982,3.982,0,0,1-.512,1.992,3.651,3.651,0,0,1-1.43,1.418,4.108,4.108,0,0,1-2.035.512,4.246,4.246,0,0,1-2.164-.551,3.787,3.787,0,0,1-1.484-1.574,5.184,5.184,0,0,1-.547-2.359V35.617a6.567,6.567,0,0,1,.754-3.16,5.466,5.466,0,0,1,2.152-2.2,6.154,6.154,0,0,1,3.1-.8Zm-2.375,5.883a1.506,1.506,0,0,0-.875.242,1.538,1.538,0,0,0-.523.594v.789q0,2.156,1.492,2.156a1.211,1.211,0,0,0,1-.539,2.2,2.2,0,0,0,.4-1.352,2.156,2.156,0,0,0-.41-1.363A1.312,1.312,0,0,0,86.977,35.344ZM96.406,41V29.625h3.664a5.39,5.39,0,0,1,2.711.684,4.805,4.805,0,0,1,1.879,1.93,5.826,5.826,0,0,1,.684,2.793v.523a5.86,5.86,0,0,1-.66,2.8,4.826,4.826,0,0,1-1.859,1.938,5.271,5.271,0,0,1-2.676.707Zm2.742-9.258v7.148h.953a2.133,2.133,0,0,0,1.813-.84,4.116,4.116,0,0,0,.633-2.5v-.492a4.082,4.082,0,0,0-.633-2.484,2.17,2.17,0,0,0-1.844-.836Zm14.656,4.43h-4.312v2.719h5.094V41H106.75V29.625H114.6v2.117h-5.109v2.4H113.8ZM127.461,41h-7.937V39.281l3.656-3.844a4.364,4.364,0,0,0,1.352-2.445,1.7,1.7,0,0,0-.32-1.117,1.144,1.144,0,0,0-.93-.383A1.158,1.158,0,0,0,122.3,32a2.1,2.1,0,0,0-.375,1.277h-2.641a3.736,3.736,0,0,1,.523-1.934,3.671,3.671,0,0,1,1.453-1.387,4.317,4.317,0,0,1,2.078-.5,4.246,4.246,0,0,1,2.84.852,3.04,3.04,0,0,1,1,2.445,3.551,3.551,0,0,1-.25,1.309,5.739,5.739,0,0,1-.777,1.336,19.581,19.581,0,0,1-1.7,1.871l-1.469,1.7h4.477Zm9.227-4.648a5.431,5.431,0,0,1-1.035,3.555A4.045,4.045,0,0,1,129.8,39.9a5.423,5.423,0,0,1-1.039-3.547V34.273a5.431,5.431,0,0,1,1.035-3.555,4.045,4.045,0,0,1,5.855.008,5.436,5.436,0,0,1,1.039,3.555Zm-2.633-2.414a4.057,4.057,0,0,0-.32-1.832,1.071,1.071,0,0,0-1.016-.605,1.045,1.045,0,0,0-.988.563,3.822,3.822,0,0,0-.332,1.7v2.906a4.088,4.088,0,0,0,.32,1.863,1.075,1.075,0,0,0,1.016.59,1.06,1.06,0,0,0,.992-.574,3.9,3.9,0,0,0,.328-1.8Zm11.9,2.414a5.431,5.431,0,0,1-1.035,3.555,4.045,4.045,0,0,1-5.855-.008,5.423,5.423,0,0,1-1.039-3.547V34.273a5.431,5.431,0,0,1,1.035-3.555,4.045,4.045,0,0,1,5.855.008,5.436,5.436,0,0,1,1.039,3.555Zm-2.633-2.414a4.057,4.057,0,0,0-.32-1.832,1.071,1.071,0,0,0-1.016-.605,1.045,1.045,0,0,0-.988.563,3.822,3.822,0,0,0-.332,1.7v2.906a4.088,4.088,0,0,0,.32,1.863,1.075,1.075,0,0,0,1.016.59,1.06,1.06,0,0,0,.992-.574,3.9,3.9,0,0,0,.328-1.8Zm10.953,2.617h1.156v2.031h-1.156V41h-2.633V38.586h-4.4l-.156-1.609,4.555-7.328v-.023h2.633Zm-4.68,0h2.047v-3.5l-.164.266Z" transform="translate(975 4770)" fill="#12263f"/>
  </g>
</svg>
