<svg xmlns="http://www.w3.org/2000/svg" width="79.245" height="107.533" viewBox="0 0 79.245 107.533">
  <g id="Grupo_989795" data-name="Grupo 989795" transform="translate(0)">
    <g id="Grupo_83714" data-name="Grupo 83714">
      <path id="Trazado_117351" data-name="Trazado 117351" d="M2219.413,95.7h-31.66l-22.387,22.387v31.66l22.387,22.387h31.66l22.387-22.387v-31.66Z" transform="translate(-2162.555 -95.701)" fill="#bc261e"/>
      <path id="Trazado_117352" data-name="Trazado 117352" d="M2201.6,95.7h-31.66l-22.387,22.387v31.66l22.387,22.387h31.66l22.387-22.387v-31.66Z" transform="translate(-2147.55 -95.701)" fill="#ea3624"/>
      <g id="Grupo_83712" data-name="Grupo 83712" transform="translate(4.357 4.357)">
        <path id="Trazado_117353" data-name="Trazado 117353" d="M2223.058,191.044h-28.051l-19.834-19.834v-28.05l19.834-19.835h28.051l19.835,19.835v28.05Zm-26.4-3.981h24.752l17.5-17.5V144.808l-17.5-17.5h-24.752l-17.5,17.5V169.56Z" transform="translate(-2175.174 -123.324)" fill="#ffe5d2"/>
      </g>
      <g id="Grupo_83713" data-name="Grupo 83713" transform="translate(12.354 30.669)">
        <path id="Trazado_117354" data-name="Trazado 117354" d="M2237.352,299.8a3.831,3.831,0,0,1-1.682,3.225,7.543,7.543,0,0,1-4.569,1.24,12.765,12.765,0,0,1-2.909-.293,14.968,14.968,0,0,1-2.323-.744v-3.22h.379a8.024,8.024,0,0,0,2.4,1.317,7.818,7.818,0,0,0,2.558.46,8.3,8.3,0,0,0,.83-.054,3.307,3.307,0,0,0,.839-.18,2.092,2.092,0,0,0,.654-.406.949.949,0,0,0,.257-.722.973.973,0,0,0-.375-.762,2.608,2.608,0,0,0-1.1-.492q-.758-.18-1.6-.338a12.254,12.254,0,0,1-1.583-.4,4.968,4.968,0,0,1-2.44-1.493,3.658,3.658,0,0,1-.745-2.341,3.6,3.6,0,0,1,1.683-3.063,7.338,7.338,0,0,1,4.325-1.186,13.4,13.4,0,0,1,2.621.257,12.234,12.234,0,0,1,2.242.645v3.094h-.37a7.139,7.139,0,0,0-1.989-1.087,6.849,6.849,0,0,0-2.4-.438,6.309,6.309,0,0,0-.862.059,3.376,3.376,0,0,0-.825.221,1.578,1.578,0,0,0-.6.41.9.9,0,0,0-.253.627.936.936,0,0,0,.406.817,4.54,4.54,0,0,0,1.533.519q.74.153,1.42.3a14.941,14.941,0,0,1,1.466.4,4.9,4.9,0,0,1,2.278,1.376A3.384,3.384,0,0,1,2237.352,299.8Z" transform="translate(-2225.868 -290.315)" fill="#ffe5d2"/>
        <path id="Trazado_117355" data-name="Trazado 117355" d="M2317.039,294.493h-4.195v10.834h-3.464V294.493h-4.195v-2.6h11.853Z" transform="translate(-2292.674 -291.615)" fill="#ffe5d2"/>
        <path id="Trazado_117356" data-name="Trazado 117356" d="M2402.411,297.122a7,7,0,0,1-1.84,5.1,7.781,7.781,0,0,1-10.167,0,8.017,8.017,0,0,1,0-10.22,7.8,7.8,0,0,1,10.157,0A6.984,6.984,0,0,1,2402.411,297.122Zm-4.592,3.4a4.016,4.016,0,0,0,.748-1.448,7.032,7.032,0,0,0,.244-1.962,6.615,6.615,0,0,0-.28-2.057,4,4,0,0,0-.731-1.371,2.732,2.732,0,0,0-1.06-.785,3.361,3.361,0,0,0-2.49-.009,2.9,2.9,0,0,0-1.069.776,3.826,3.826,0,0,0-.735,1.394,6.785,6.785,0,0,0-.284,2.061,6.626,6.626,0,0,0,.275,2.043,4.044,4.044,0,0,0,.726,1.376,2.773,2.773,0,0,0,1.056.785,3.264,3.264,0,0,0,1.272.253,3.216,3.216,0,0,0,1.272-.257A2.781,2.781,0,0,0,2397.82,300.523Z" transform="translate(-2362.9 -290.122)" fill="#ffe5d2"/>
        <path id="Trazado_117357" data-name="Trazado 117357" d="M2504.188,296.135a5.1,5.1,0,0,1-.316,1.764,3.931,3.931,0,0,1-.9,1.448,5.51,5.51,0,0,1-1.791,1.2,6.494,6.494,0,0,1-2.458.406h-2.156v4.375H2493.1V291.895h5.7a9.022,9.022,0,0,1,2.16.221,5.105,5.105,0,0,1,1.556.663,3.571,3.571,0,0,1,1.241,1.362A4.3,4.3,0,0,1,2504.188,296.135Zm-3.581.077a1.581,1.581,0,0,0-.307-.977,1.661,1.661,0,0,0-.712-.571,3.224,3.224,0,0,0-1.055-.239q-.514-.022-1.372-.022h-.6v4.014h.992a8.066,8.066,0,0,0,1.457-.108,2.062,2.062,0,0,0,.961-.432,1.657,1.657,0,0,0,.482-.689A2.8,2.8,0,0,0,2500.607,296.212Z" transform="translate(-2450.947 -291.615)" fill="#ffe5d2"/>
      </g>
      <path id="Trazado_117358" data-name="Trazado 117358" d="M2178.343,95.7l-30.793,33.2V145.3l45.6-49.6Z" transform="translate(-2147.55 -95.701)" fill="#fff" opacity="0.21"/>
      <path id="Trazado_117359" data-name="Trazado 117359" d="M2186.555,205.643l57.21-50.884,6.854,6.854-51.235,56.859Z" transform="translate(-2180.402 -145.443)" fill="#fff" opacity="0.21"/>
    </g>
    <rect id="Rect치ngulo_34322" data-name="Rect치ngulo 34322" width="7.77" height="30.834" transform="translate(35.437 76.7)" fill="#a6afbc"/>
    <rect id="Rect치ngulo_34323" data-name="Rect치ngulo 34323" width="1.479" height="28.745" transform="translate(37.113 78.788)" fill="#fff" opacity="0.36"/>
    <path id="Trazado_117360" data-name="Trazado 117360" d="M2372.2,580.247v3.311l7.771,3.529v-6.84Z" transform="translate(-2336.759 -503.813)" fill="#7e858c"/>
  </g>
</svg>
