<svg xmlns="http://www.w3.org/2000/svg" xmlns:xlink="http://www.w3.org/1999/xlink" width="121" height="118" viewBox="0 0 121 118">
  <defs>
    <clipPath id="clip-path">
      <rect id="Rect치ngulo_349680" data-name="Rect치ngulo 349680" width="121" height="118" transform="translate(180 532.477)" fill="#fff" stroke="#707070" stroke-width="1"/>
    </clipPath>
    <clipPath id="clip-path-2">
      <rect id="Rect치ngulo_35034" data-name="Rect치ngulo 35034" width="75.1" height="64.56" fill="#fcc781"/>
    </clipPath>
  </defs>
  <g id="Enmascarar_grupo_198" data-name="Enmascarar grupo 198" transform="translate(-180 -532.477)" clip-path="url(#clip-path)">
    <path id="Trazado_151775" data-name="Trazado 151775" d="M0,210.032v0Z" transform="translate(180 480)" fill="#d9d9d9"/>
    <path id="Trazado_151776" data-name="Trazado 151776" d="M1128.557,482.651H1085.5a6.964,6.964,0,0,0-4.923,2.038l-30.445,30.445a6.963,6.963,0,0,0-2.038,4.923v43.055a6.962,6.962,0,0,0,2.038,4.923l30.445,30.445a6.964,6.964,0,0,0,4.923,2.038h43.055a6.962,6.962,0,0,0,4.923-2.038l30.445-30.445a6.962,6.962,0,0,0,2.039-4.923V520.057a6.963,6.963,0,0,0-2.039-4.923L1133.48,484.69A6.962,6.962,0,0,0,1128.557,482.651Z" transform="translate(-932.539 49.849)" fill="none" stroke="#fff" stroke-width="7"/>
    <g id="Grupo_158555" data-name="Grupo 158555" transform="translate(200.352 540.9)">
      <circle id="Elipse_4723" data-name="Elipse 4723" cx="50.5" cy="50.5" r="50.5" transform="translate(-0.352 0.099)" fill="#f88f05"/>
      <g id="Grupo_157985" data-name="Grupo 157985" transform="translate(13.273 17.715)">
        <g id="Grupo_157984" data-name="Grupo 157984" clip-path="url(#clip-path-2)">
          <path id="Trazado_151771" data-name="Trazado 151771" d="M74,60.69q-15-24.883-29.969-49.783c-1.206-2.014-2.887-2.049-4.121.018C31.722,24.644,23.443,38.311,15.193,51.994q-2.74,4.545-5.476,9.09a1.9,1.9,0,0,0,.43,2.716,2.654,2.654,0,0,0,1.55.334q15.146,0,30.293,0,15.073,0,30.146,0a4.881,4.881,0,0,0,1.02-.068,1.815,1.815,0,0,0,1.31-2.543A6.779,6.779,0,0,0,74,60.69M40.58,24.777a3.827,3.827,0,0,1,4.164.943,3.084,3.084,0,0,1,.507,2.012c-.032,5.184-.443,10.353-.557,15.533-.014.66-.086,1.323-.045,1.979.1,1.648-.684,2.316-2.332,2.58a3.427,3.427,0,0,1-1.727-.217,1.829,1.829,0,0,1-1.265-1.853c-.081-3.078-.188-6.156-.259-8.417-.219-3.745-.32-6.676-.358-9.609a2.659,2.659,0,0,1,1.873-2.953m1.469,33.2a3.5,3.5,0,0,1,.014-6.992,3.5,3.5,0,0,1-.014,6.992" transform="translate(-4.425 -4.446)" fill="#fee3c0"/>
          <path id="Trazado_151772" data-name="Trazado 151772" d="M49.369,13.248q-2.946-4.888-5.9-9.774a6.608,6.608,0,0,0-5.6-3.466,6.7,6.7,0,0,0-6.331,3.6c-6.8,11.282-13.655,22.527-20.374,33.855C7.4,43.822,3.145,49.9,0,56.622v2.2a15.857,15.857,0,0,0,.559,1.63A6.7,6.7,0,0,0,7.148,64.56q30.4-.009,60.8,0c.244,0,.489,0,.733-.014a6.478,6.478,0,0,0,3.957-1.521,6.717,6.717,0,0,0,1.327-8.978q-12.29-20.4-24.592-40.8M68.732,59.615a4.915,4.915,0,0,1-1.02.067q-15.073,0-30.146,0-15.146,0-30.293,0a2.65,2.65,0,0,1-1.55-.334,1.9,1.9,0,0,1-.43-2.716q2.728-4.551,5.476-9.09C19.019,33.865,27.3,20.2,35.489,6.479c1.235-2.068,2.916-2.032,4.121-.018Q54.533,31.39,69.58,56.244a6.773,6.773,0,0,1,.463.828,1.815,1.815,0,0,1-1.31,2.543" transform="translate(0 0)" fill="#31313c"/>
          <path id="Trazado_151773" data-name="Trazado 151773" d="M65.756,59.394a1.829,1.829,0,0,0,1.265,1.853,3.439,3.439,0,0,0,1.727.217c1.648-.264,2.435-.933,2.332-2.581-.041-.656.031-1.319.045-1.978.114-5.18.526-10.35.557-15.533a3.086,3.086,0,0,0-.507-2.013,3.827,3.827,0,0,0-4.164-.942,2.658,2.658,0,0,0-1.873,2.952c.038,2.934.139,5.864.358,9.609.072,2.26.179,5.338.26,8.417" transform="translate(-30.856 -18.086)" fill="#31313c"/>
          <path id="Trazado_151774" data-name="Trazado 151774" d="M68.377,88.431a3.5,3.5,0,0,0-.014,6.992,3.5,3.5,0,0,0,.014-6.992" transform="translate(-30.739 -41.89)" fill="#31313c"/>
        </g>
      </g>
    </g>
  </g>
</svg>
