<svg xmlns="http://www.w3.org/2000/svg" width="66.974" height="90.881" viewBox="0 0 66.974 90.881">
  <g id="Grupo_991539" data-name="Grupo 991539" transform="translate(11412.307 12222.23)">
    <g id="Grupo_970540" data-name="Grupo 970540" transform="translate(-11412.307 -12222.23)">
      <g id="Grupo_83714" data-name="Grupo 83714" transform="translate(0 0)">
        <path id="Trazado_117351" data-name="Trazado 117351" d="M2211.043,95.7h-26.757l-18.921,18.92v26.758l18.921,18.92h26.757l18.92-18.92V114.622Z" transform="translate(-2162.99 -95.701)" fill="#bc261e"/>
        <path id="Trazado_117352" data-name="Trazado 117352" d="M2193.228,95.7H2166.47l-18.92,18.92v26.758l18.92,18.92h26.758l18.92-18.92V114.622Z" transform="translate(-2147.55 -95.701)" fill="#ea3624"/>
        <g id="Grupo_83712" data-name="Grupo 83712" transform="translate(3.683 3.683)">
          <path id="Trazado_117353" data-name="Trazado 117353" d="M2215.643,180.557h-23.707l-16.763-16.763V140.087l16.763-16.763h23.707l16.763,16.763v23.707Zm-22.313-3.365h20.919l14.792-14.792V141.481l-14.792-14.792H2193.33l-14.792,14.792V162.4Z" transform="translate(-2175.173 -123.324)" fill="#ffe5d2"/>
        </g>
        <g id="Grupo_83713" data-name="Grupo 83713" transform="translate(10.441 25.92)">
          <path id="Trazado_117354" data-name="Trazado 117354" d="M2235.573,298.341a3.238,3.238,0,0,1-1.422,2.726,6.375,6.375,0,0,1-3.862,1.048,10.79,10.79,0,0,1-2.458-.248,12.662,12.662,0,0,1-1.963-.629v-2.722h.32a6.782,6.782,0,0,0,2.032,1.113,6.608,6.608,0,0,0,2.162.389,7.009,7.009,0,0,0,.7-.046,2.8,2.8,0,0,0,.709-.153,1.768,1.768,0,0,0,.553-.343.8.8,0,0,0,.217-.61.822.822,0,0,0-.317-.644,2.2,2.2,0,0,0-.926-.416q-.641-.152-1.353-.286a10.36,10.36,0,0,1-1.338-.339,4.2,4.2,0,0,1-2.062-1.262,3.092,3.092,0,0,1-.629-1.978,3.044,3.044,0,0,1,1.422-2.589,6.2,6.2,0,0,1,3.656-1,11.32,11.32,0,0,1,2.215.217,10.335,10.335,0,0,1,1.895.545v2.615h-.313a6.031,6.031,0,0,0-1.681-.919,5.788,5.788,0,0,0-2.032-.37,5.335,5.335,0,0,0-.728.05,2.859,2.859,0,0,0-.7.187,1.333,1.333,0,0,0-.511.347.761.761,0,0,0-.214.53.791.791,0,0,0,.343.69,3.84,3.84,0,0,0,1.3.438l1.2.252a12.641,12.641,0,0,1,1.239.335,4.143,4.143,0,0,1,1.925,1.163A2.861,2.861,0,0,1,2235.573,298.341Z" transform="translate(-2225.868 -290.32)" fill="#ffe5d2"/>
          <path id="Trazado_117355" data-name="Trazado 117355" d="M2315.2,294.091h-3.545v9.156h-2.928v-9.156h-3.545v-2.2H2315.2Z" transform="translate(-2294.611 -291.659)" fill="#ffe5d2"/>
          <path id="Trazado_117356" data-name="Trazado 117356" d="M2400.267,296.038a5.914,5.914,0,0,1-1.555,4.311,6.576,6.576,0,0,1-8.592,0,6.775,6.775,0,0,1,0-8.638,6.589,6.589,0,0,1,8.584,0A5.9,5.9,0,0,1,2400.267,296.038Zm-3.881,2.874a3.393,3.393,0,0,0,.633-1.223,5.942,5.942,0,0,0,.206-1.658,5.6,5.6,0,0,0-.236-1.738,3.377,3.377,0,0,0-.618-1.159,2.309,2.309,0,0,0-.9-.663,2.841,2.841,0,0,0-2.1-.008,2.455,2.455,0,0,0-.9.656,3.232,3.232,0,0,0-.622,1.178,5.734,5.734,0,0,0-.24,1.742,5.6,5.6,0,0,0,.233,1.727,3.416,3.416,0,0,0,.614,1.163,2.345,2.345,0,0,0,.892.663,2.758,2.758,0,0,0,1.075.213,2.718,2.718,0,0,0,1.075-.217A2.349,2.349,0,0,0,2396.386,298.912Z" transform="translate(-2366.874 -290.122)" fill="#ffe5d2"/>
          <path id="Trazado_117357" data-name="Trazado 117357" d="M2502.471,295.478a4.3,4.3,0,0,1-.267,1.491,3.322,3.322,0,0,1-.762,1.223,4.657,4.657,0,0,1-1.513,1.014,5.488,5.488,0,0,1-2.077.343h-1.822v3.7H2493.1V291.895h4.818a7.621,7.621,0,0,1,1.826.187,4.31,4.31,0,0,1,1.315.56,3.018,3.018,0,0,1,1.048,1.151A3.635,3.635,0,0,1,2502.471,295.478Zm-3.027.065a1.338,1.338,0,0,0-.259-.825,1.407,1.407,0,0,0-.6-.483,2.726,2.726,0,0,0-.892-.2q-.435-.019-1.159-.019h-.5v3.393h.839a6.82,6.82,0,0,0,1.231-.091,1.745,1.745,0,0,0,.812-.365,1.4,1.4,0,0,0,.407-.582A2.37,2.37,0,0,0,2499.444,295.543Z" transform="translate(-2457.474 -291.659)" fill="#ffe5d2"/>
        </g>
        <path id="Trazado_117358" data-name="Trazado 117358" d="M2173.574,95.7l-26.024,28.062v13.854L2186.086,95.7Z" transform="translate(-2147.55 -95.701)" fill="#fff" opacity="0.21"/>
        <path id="Trazado_117359" data-name="Trazado 117359" d="M2186.555,197.763l48.351-43,5.793,5.792-43.3,48.054Z" transform="translate(-2181.354 -146.885)" fill="#fff" opacity="0.21"/>
      </g>
      <rect id="Rect치ngulo_34322" data-name="Rect치ngulo 34322" width="6.567" height="26.059" transform="translate(29.95 64.822)" fill="#a6afbc"/>
      <rect id="Rect치ngulo_34323" data-name="Rect치ngulo 34323" width="1.25" height="24.294" transform="translate(31.366 66.587)" fill="#fff" opacity="0.36"/>
      <path id="Trazado_117360" data-name="Trazado 117360" d="M2372.2,580.247v2.8l6.567,2.983v-5.781Z" transform="translate(-2342.246 -515.649)" fill="#7e858c"/>
    </g>
  </g>
</svg>
