<svg xmlns="http://www.w3.org/2000/svg" width="80.479" height="94.067" viewBox="0 0 80.479 94.067">
  <g id="Grupo_970541" data-name="Grupo 970541" transform="translate(0.001)">
    <path id="Trazado_116510" data-name="Trazado 116510" d="M2843.8,544.339c0,9.243-14.456,14.867-40.2,14.867-24.556,0-40.2-5.624-40.2-14.867,0-.977.087-4.231.087-4.231,3.991-5.812,20.914-8.626,40.113-8.626,19.134,0,36.049,3.256,40.108,8.692C2843.708,540.174,2843.8,543.45,2843.8,544.339Z" transform="translate(-2763.4 -465.139)" fill="#ff9210"/>
    <path id="Trazado_116511" data-name="Trazado 116511" d="M2843.8,521.966c0,9.243-14.456,14.867-40.2,14.867-24.556,0-40.2-5.624-40.2-14.867,0-7.225,18-12.857,40.2-12.857S2843.8,515.533,2843.8,521.966Z" transform="translate(-2763.4 -446.132)" fill="#ffb92c"/>
    <path id="Trazado_116512" data-name="Trazado 116512" d="M2870.964,94.813h-9.505l-24.357,74.34s5.148,8.119,28.12,8.119c25.744,0,30.1-8.119,30.1-8.119Z" transform="translate(-2826.012 -94.175)" fill="#ffe5d2"/>
    <g id="Grupo_81578" data-name="Grupo 81578" transform="translate(11.089 0.638)">
      <path id="Trazado_116513" data-name="Trazado 116513" d="M2957.149,271.161l-2.732-8.339a88.246,88.246,0,0,1-14.026,1,74.3,74.3,0,0,1-12.078-.9l-2.728,8.324a68.836,68.836,0,0,0,14.806,1.423A81.161,81.161,0,0,0,2957.149,271.161Z" transform="translate(-2912.27 -237.542)" fill="#ff9210"/>
      <path id="Trazado_116514" data-name="Trazado 116514" d="M2926.277,398.524l-3.2-9.776c-4.517,1.34-11,2.385-20.234,2.385a61.657,61.657,0,0,1-18.27-2.337l-3.187,9.728c4.267,1.829,11.023,3.5,21.457,3.5C2914.533,402.027,2921.813,400.352,2926.277,398.524Z" transform="translate(-2874.719 -344.52)" fill="#ff9210"/>
      <path id="Trazado_116515" data-name="Trazado 116515" d="M2865.221,524.193c-13.587,0-20.938-2.84-24.677-5.161L2837.1,529.54s5.148,8.119,28.12,8.119c25.744,0,30.1-8.119,30.1-8.119l-3.426-10.457C2888.079,521.394,2880.336,524.193,2865.221,524.193Z" transform="translate(-2837.101 -455.2)" fill="#ff9210"/>
      <path id="Trazado_116516" data-name="Trazado 116516" d="M2976.143,109.607a97.308,97.308,0,0,0,10.421-.517l-4.678-14.277h-9.5l-4.711,14.378A81.333,81.333,0,0,0,2976.143,109.607Z" transform="translate(-2948.023 -94.813)" fill="#ff9210"/>
    </g>
    <path id="Trazado_116517" data-name="Trazado 116517" d="M3080.352,167.614a13.812,13.812,0,0,0-5.406-4.237,65.427,65.427,0,0,0-7.542-2.859l-21.577-65.705-2.891.079,15.01,80.625,13.838,5.018V183.9s4.381-1.92,6.059-3.567c3.711-3.64,3.373-6.379,3.373-6.379S3081.862,169.62,3080.352,167.614Z" transform="translate(-3000.874 -94.175)" fill="#d6770f" opacity="0.34"/>
    <path id="Trazado_116518" data-name="Trazado 116518" d="M2922.269,204.887a6.873,6.873,0,0,0-.6,3.363,2.32,2.32,0,0,0,2.34,2.061A2.994,2.994,0,0,0,2926,208.5c1.358-2.643,1.69-5.671,2.2-8.6,1.57-9.084,4.992-17.759,6.719-26.815.661-3.469-2.335-4.967-3.554-1.334-1.194,3.558-1.593,7.57-2.5,11.226Q2926.1,194.084,2922.269,204.887Z" transform="translate(-2897.817 -157.751)" fill="#fff" opacity="0.4"/>
    <path id="Trazado_116519" data-name="Trazado 116519" d="M2897.715,456.107a4.9,4.9,0,0,0-.348,4.352c.714,1.855,2.751,3.314,4.668,2.789a4.551,4.551,0,0,0,1.923-1.2c1.409-1.375,2.251-3.679,1.155-5.316C2903.517,454.35,2899.418,453.464,2897.715,456.107Z" transform="translate(-2876.913 -399.735)" fill="#fff" opacity="0.4"/>
    <path id="Trazado_116520" data-name="Trazado 116520" d="M2783.547,594.474a21.473,21.473,0,0,0,14.131,5.979c.709.022,1.62-.148,1.755-.844s-.652-1.2-1.324-1.427c-2.458-.846-5.1-1.089-7.512-2.061a8.7,8.7,0,0,1-3.8-2.812c-.872-1.2-.617-3.378-1.6-4.237a2.031,2.031,0,0,0-3.191.9C2781.2,591.718,2782.328,593.292,2783.547,594.474Z" transform="translate(-2778.977 -513.656)" fill="#fff" opacity="0.4"/>
    <path id="Trazado_116521" data-name="Trazado 116521" d="M3008.382,91.21c0,.352-2.138.638-4.774.638s-4.775-.286-4.775-.638,2.138-.638,4.775-.638S3008.382,90.858,3008.382,91.21Z" transform="translate(-2963.408 -90.572)" fill="#ffb92c"/>
  </g>
</svg>
