<svg xmlns="http://www.w3.org/2000/svg" xmlns:xlink="http://www.w3.org/1999/xlink" width="85" height="85" viewBox="0 0 85 85">
  <defs>
    <clipPath id="clip-path">
      <rect id="Rectángulo_349475" data-name="Rectángulo 349475" width="49.201" height="62.88" fill="none"/>
    </clipPath>
  </defs>
  <g id="Grupo_991068" data-name="Grupo 991068" transform="translate(-442 -492)">
    <g id="Grupo_991055" data-name="Grupo 991055" transform="translate(-274 -295)">
      <path id="Trazado_661405" data-name="Trazado 661405" d="M85,42.5A42.508,42.508,0,0,1,48.021,84.645a43.083,43.083,0,0,1-11.045,0A42.51,42.51,0,0,1,.066,44.878Q0,43.7,0,42.5a42.5,42.5,0,1,1,85,0Zm0,0" transform="translate(716 787)" fill="#69b8d4"/>
      <path id="Trazado_661406" data-name="Trazado 661406" d="M105.049,98.594a2.835,2.835,0,0,1,2.835-2.836h23.9a2.836,2.836,0,0,1,0,5.672h-7.729a2.836,2.836,0,1,0,0,5.671h.788a2.836,2.836,0,1,1,0,5.672h-22.9a2.835,2.835,0,0,1-2.835-2.836,2.836,2.836,0,0,0-2.836-2.836h-.788a2.836,2.836,0,1,1,0-5.671h6.736a2.836,2.836,0,0,0,2.836-2.836Zm0,0" transform="translate(664.804 734.081)" fill="#8cd2e5"/>
      <path id="Trazado_661407" data-name="Trazado 661407" d="M14.759,65.122a2.836,2.836,0,0,1-2.836,2.835H4.193a2.836,2.836,0,0,0,0,5.672H4.98a2.835,2.835,0,1,1,0,5.67H.066Q0,78.118,0,76.921A42.415,42.415,0,0,1,2.588,62.286h9.335a2.836,2.836,0,0,1,2.836,2.836Zm0,0" transform="translate(716 752.579)" fill="#8cd2e5"/>
      <path id="Trazado_661408" data-name="Trazado 661408" d="M33.775,122.092a2.836,2.836,0,0,1,2.836-2.836h23.9a2.836,2.836,0,0,1,0,5.671h-7.73a2.836,2.836,0,0,0,0,5.672h.789a2.836,2.836,0,0,1,0,5.671h-22.9a2.836,2.836,0,0,1-2.836-2.836,2.835,2.835,0,0,0-2.836-2.835H24.2a2.836,2.836,0,0,1,0-5.672h6.736a2.836,2.836,0,0,0,2.836-2.835Zm0,0" transform="translate(704.191 721.096)" fill="#8cd2e5"/>
    </g>
    <g id="Grupo_991066" data-name="Grupo 991066" transform="translate(460 503)">
      <g id="Grupo_991065" data-name="Grupo 991065" clip-path="url(#clip-path)">
        <path id="Trazado_680108" data-name="Trazado 680108" d="M54.872,62.7c-1.469.762-2.946,1.508-4.4,2.29-2.179,1.169-4.343,2.363-6.513,3.548-.235.128-.518.194-.64.475-.319,0-.389-.276-.506-.481-1.477-2.592-2.9-5.212-4.359-7.816a6.823,6.823,0,0,1-.638-1.742,11.185,11.185,0,0,0-3.072-5.368c-.645-.64-.973-.621-1.645.009-.182.17-.353.35-.525.53-.623.649-.849.639-1.426-.024-1.862-2.139-3.6-4.375-5.377-6.586a31.745,31.745,0,0,0-6.49-6.216c-2.968-2.088-5.833-4.324-8.748-6.488a3.762,3.762,0,0,1-.659-.6A1.505,1.505,0,0,1,9.7,32.367a1.634,1.634,0,0,1,1.856-.775,3.5,3.5,0,0,1,.932.46c3.395,2.075,6.751,4.213,10.153,6.276.483.293.976.7,1.539.155.386-.377.285-.779-.329-1.571C20.017,31.96,16.2,26.987,12.37,22.03a2.14,2.14,0,0,1-.563-1.193,1.454,1.454,0,0,1,.648-1.486,1.639,1.639,0,0,1,1.706,0,2.068,2.068,0,0,1,.529.41c2.577,2.829,5.248,5.57,7.853,8.373,1.251,1.346,2.49,2.708,3.8,4,.374.366.711.763,1.05,1.161s.744.7,1.3.377c.449-.264.505-.748.147-1.385q-1.7-3.022-3.406-6.043-3.757-6.658-7.457-13.348a7.812,7.812,0,0,1-.422-.873,1.88,1.88,0,0,1,.8-2.319,1.815,1.815,0,0,1,2.352.444,5.319,5.319,0,0,1,.454.683c4.085,6.742,8.213,13.458,12.323,20.185a1.942,1.942,0,0,0,.451.589.767.767,0,0,0,1.271-.542,2.28,2.28,0,0,0-.148-.951c-1.677-5.441-3.3-10.9-5.037-16.322-.46-1.44,0-2.573,1.164-2.968a2.039,2.039,0,0,1,2.471,1.009,3.805,3.805,0,0,1,.249.623c1.473,4.437,3.008,8.854,4.489,13.288q1.217,3.644,2.478,7.273a2.052,2.052,0,0,1-.139,1.919,2.4,2.4,0,0,0-.192.4.831.831,0,0,0,.248,1.126A.882.882,0,0,0,42,36.074a7.683,7.683,0,0,0,1.071-2.528A70.3,70.3,0,0,0,44.5,24.495a1.938,1.938,0,0,1,1.311-1.751,1.543,1.543,0,0,1,2.334,1.234,14.86,14.86,0,0,1,.256,2.741c.143,2.627.344,5.25.51,7.875.159,2.5.341,5,.53,7.5a34.75,34.75,0,0,1,.185,4.986,5.109,5.109,0,0,1-1.313,2.947c-.677.807-.709,1-.128,1.9,2.125,3.275,4.226,6.566,6.355,9.838.184.283.455.548.331.944" transform="translate(-7.573 -7.564)" fill="#fbd5cc"/>
        <path id="Trazado_680109" data-name="Trazado 680109" d="M47.3,55.138q-2.769-4.326-5.538-8.652c-.5-.774-.987-1.549-1.5-2.312a1.139,1.139,0,0,1,.125-1.6A5.431,5.431,0,0,0,41.9,38.217c-.481-6.967-.928-13.937-1.391-20.906a5.543,5.543,0,0,0-.09-.588c-.219-1.257-.514-1.575-1.409-1.528a1.889,1.889,0,0,0-1.928,1.8,49.684,49.684,0,0,1-1.033,7.219,11.955,11.955,0,0,1-1.318,4.148c-.093.146-.151.317-.257.452A.977.977,0,0,1,33.1,29.1a.855.855,0,0,1-.34-1.283,2.969,2.969,0,0,0,.168-2.923c-2.318-6.723-4.581-13.465-6.866-20.2A1.733,1.733,0,0,0,23.966,3.36a1.846,1.846,0,0,0-1.381,2.619q2.293,7.462,4.592,14.923c.2.64.376,1.285.584,1.921.2.619.234,1.2-.418,1.559-.527.294-1.07.033-1.51-.687Q19.543,13.4,13.254,3.109c-.766-1.252-2.016-1.422-2.866-.408a1.68,1.68,0,0,0-.066,2.077q2.523,4.558,5.062,9.106,2.965,5.291,5.954,10.569a3.679,3.679,0,0,1,.345.656.975.975,0,0,1-.377,1.186.938.938,0,0,1-1.176-.03,2.956,2.956,0,0,1-.376-.36Q13.434,19.2,7.117,12.5a2.034,2.034,0,0,0-1-.74,1.329,1.329,0,0,0-1.509.549,1.389,1.389,0,0,0,.1,1.728q2.022,2.629,4.049,5.254L16.5,29.32c.121.157.246.313.357.477a1.018,1.018,0,0,1-1.353,1.471c-.912-.554-1.815-1.122-2.722-1.685q-4.049-2.512-8.1-5.028a1.775,1.775,0,0,0-1.535-.366,1.481,1.481,0,0,0-1.069,1.225,1.507,1.507,0,0,0,.733,1.518c2.615,1.938,5.155,3.986,7.852,5.8a41.066,41.066,0,0,1,9.5,9.376c1.165,1.516,2.433,2.954,3.644,4.435.341.417.564.544.991.017,1.337-1.647,1.774-1.623,3.137.021a11.169,11.169,0,0,1,2.6,5.358,1.743,1.743,0,0,0,.188.56q2.5,4.48,5.013,8.952c.087.617,0,1.154-.692,1.37S34,62.605,33.7,62.081l-.367-.642a2.117,2.117,0,0,1-.642-.808c-.77-1.447-1.6-2.862-2.376-4.306-.167-.311-.253-.509-.606-.122a4.4,4.4,0,0,1-5.418,1.041A4.658,4.658,0,0,1,21.9,52.351a9.68,9.68,0,0,1,.85-2.921.736.736,0,0,0-.135-.943c-2.431-2.6-4.521-5.477-6.8-8.2a21.046,21.046,0,0,0-3.925-3.846c-1.828-1.287-3.574-2.689-5.393-3.99a1.879,1.879,0,0,1-.729-.728q-2.16-1.633-4.321-3.266A3.491,3.491,0,0,1,.585,23.7a3.487,3.487,0,0,1,4.7-1.164c1.626.94,3.208,1.956,4.809,2.938a2.4,2.4,0,0,1,1.046.5,2,2,0,0,1-.595-.967q-3.695-4.817-7.393-9.632a3.467,3.467,0,0,1-.73-3.137A3.408,3.408,0,0,1,8.2,10.7c2.124,2.164,4.178,4.4,6.256,6.608a3.3,3.3,0,0,0,.54.573c.16-.383-.056-.582-.176-.8-2.107-3.792-4.236-7.571-6.333-11.369A3.722,3.722,0,0,1,11.281.041,3.569,3.569,0,0,1,14.993,2q3.95,6.482,7.91,12.957a1.758,1.758,0,0,0,.489.566q-.94-3.04-1.88-6.081c-.329-1.064-.685-2.12-.983-3.193a3.848,3.848,0,0,1,2.636-4.808,3.807,3.807,0,0,1,4.811,2.506q2.7,7.944,5.381,15.9c.048.14.111.275.168.412a4.692,4.692,0,0,1,.669,1.505c.251-.328.061-.787.377-1.053A16.771,16.771,0,0,0,35,17.166a4.076,4.076,0,0,1,5.137-3.9A3.386,3.386,0,0,1,42.457,16.5c.238,2.7.4,5.4.6,8.1.064.892.123,1.783.184,2.675a46.53,46.53,0,0,1,.628,6.786q.192,2.221.3,4.448a7.211,7.211,0,0,1-1.157,4.316,1.233,1.233,0,0,0,.05,1.552c.9,1.335,1.745,2.712,2.627,4.062a2.031,2.031,0,0,1,.338.816c.968,1.521,1.941,3.039,2.9,4.564.495.784.3,1.528-.451,1.755a1.114,1.114,0,0,1-1.179-.429" transform="translate(0 0)" fill="#040405"/>
        <path id="Trazado_680110" data-name="Trazado 680110" d="M169.474,102.2a5.045,5.045,0,0,1-.285,1.623,7.872,7.872,0,0,1-.762-2.075l1.047.452" transform="translate(-134.902 -81.491)" fill="#d8e1e0"/>
        <path id="Trazado_680111" data-name="Trazado 680111" d="M51.158,125.642l1.039,1.241a3.678,3.678,0,0,1-1.49-.778.916.916,0,0,0,.451-.462" transform="translate(-40.614 -100.633)" fill="#d2d8d8"/>
        <path id="Trazado_680112" data-name="Trazado 680112" d="M117,159.224a13.376,13.376,0,0,1,.158-3.55,6.1,6.1,0,1,1,5.8,7.567,1.539,1.539,0,0,0-1.07.37,3.025,3.025,0,0,1-4.876-2.153c-.045-.742-.008-1.489-.008-2.233" transform="translate(-93.679 -120.947)" fill="#040405"/>
        <path id="Trazado_680113" data-name="Trazado 680113" d="M125.592,245.838c.022,1.883-.879,2.874-2.212,2.888a2.214,2.214,0,0,1-2.275-2.456,8.353,8.353,0,0,1,1.934-4.816c.226-.305.408-.283.628.01a8.519,8.519,0,0,1,1.924,4.374" transform="translate(-96.999 -193.217)" fill="#e02921"/>
        <path id="Trazado_680114" data-name="Trazado 680114" d="M128.472,168.485c.324-1.557,1.018-2.29,2.617-1.967a5.233,5.233,0,0,1,4.291,4.845,1.467,1.467,0,0,1-.78,1.47c-.15.086-.286.2-.439.28-1.514.8-1.788.639-1.789-1.026a7.1,7.1,0,0,0-.013-.819c-.233-1.98-1.141-2.78-3.142-2.783h-.745" transform="translate(-102.9 -133.313)" fill="#573f4a"/>
        <path id="Trazado_680115" data-name="Trazado 680115" d="M127.161,188.387v-.52c0-1.22.3-1.449,1.53-1.178a.635.635,0,0,1,.536.692c.007.767.031,1.535-.009,2.3a.98.98,0,0,1-1.039,1.032,1,1,0,0,1-1.011-1.066c-.026-.419,0-.841,0-1.261Z" transform="translate(-101.846 -149.447)" fill="#df2921"/>
      </g>
    </g>
  </g>
</svg>
