<svg xmlns="http://www.w3.org/2000/svg" xmlns:xlink="http://www.w3.org/1999/xlink" width="85" height="85" viewBox="0 0 85 85">
  <defs>
    <clipPath id="clip-path">
      <rect id="Rectángulo_349476" data-name="Rectángulo 349476" width="62.208" height="59.366" fill="none"/>
    </clipPath>
  </defs>
  <g id="Grupo_991076" data-name="Grupo 991076" transform="translate(-233 -715)">
    <g id="Grupo_991057" data-name="Grupo 991057" transform="translate(-483 -72)">
      <path id="Trazado_661405" data-name="Trazado 661405" d="M85,42.5A42.508,42.508,0,0,1,48.021,84.645a43.083,43.083,0,0,1-11.045,0A42.51,42.51,0,0,1,.066,44.878Q0,43.7,0,42.5a42.5,42.5,0,1,1,85,0Zm0,0" transform="translate(716 787)" fill="#69b8d4"/>
      <path id="Trazado_661406" data-name="Trazado 661406" d="M105.049,98.594a2.835,2.835,0,0,1,2.835-2.836h23.9a2.836,2.836,0,0,1,0,5.672h-7.729a2.836,2.836,0,1,0,0,5.671h.788a2.836,2.836,0,1,1,0,5.672h-22.9a2.835,2.835,0,0,1-2.835-2.836,2.836,2.836,0,0,0-2.836-2.836h-.788a2.836,2.836,0,1,1,0-5.671h6.736a2.836,2.836,0,0,0,2.836-2.836Zm0,0" transform="translate(664.804 734.081)" fill="#8cd2e5"/>
      <path id="Trazado_661407" data-name="Trazado 661407" d="M14.759,65.122a2.836,2.836,0,0,1-2.836,2.835H4.193a2.836,2.836,0,0,0,0,5.672H4.98a2.835,2.835,0,1,1,0,5.67H.066Q0,78.118,0,76.921A42.415,42.415,0,0,1,2.588,62.286h9.335a2.836,2.836,0,0,1,2.836,2.836Zm0,0" transform="translate(716 752.579)" fill="#8cd2e5"/>
      <path id="Trazado_661408" data-name="Trazado 661408" d="M33.775,122.092a2.836,2.836,0,0,1,2.836-2.836h23.9a2.836,2.836,0,0,1,0,5.671h-7.73a2.836,2.836,0,0,0,0,5.672h.789a2.836,2.836,0,0,1,0,5.671h-22.9a2.836,2.836,0,0,1-2.836-2.836,2.835,2.835,0,0,0-2.836-2.835H24.2a2.836,2.836,0,0,1,0-5.672h6.736a2.836,2.836,0,0,0,2.836-2.835Zm0,0" transform="translate(704.191 721.096)" fill="#8cd2e5"/>
    </g>
    <g id="Grupo_991075" data-name="Grupo 991075" transform="translate(244 728)">
      <g id="Grupo_991074" data-name="Grupo 991074" clip-path="url(#clip-path)">
        <path id="Trazado_680116" data-name="Trazado 680116" d="M50.32,62.629a.744.744,0,0,0-.711-.309q-13.83.011-27.659,0a.746.746,0,0,0-.711.31c-.318-.242-.226-.6-.229-.912q-.019-2.089,0-4.179a3.03,3.03,0,0,0-.371-1.445c-1.558-3.063-3.407-5.989-4.4-9.323-.266-.9-.488-1.809-.709-2.719-.058-.239-.171-.529.071-.708s.474.039.709.109A2.563,2.563,0,0,1,18.4,45.889c.264,2.174,1.71,3.849,3.148,5.436a.839.839,0,0,0,1.276.131.819.819,0,0,0-.011-1.225,18.238,18.238,0,0,1-2.237-3.147,5.2,5.2,0,0,1-.621-3c.082-.923-.068-1.106-.914-1.382a8.208,8.208,0,0,1-4.395-2.67c-.407-.549-.979-.2-1.481-.214a12.118,12.118,0,0,0-1.687-2.108,28.063,28.063,0,0,1-4.707-10.5,49.468,49.468,0,0,1-.908-5.355A8.682,8.682,0,0,1,9.963,18a22.53,22.53,0,0,1,5.116-1.341,11.763,11.763,0,0,1,2.337-.168,2.222,2.222,0,0,0,1.815-.756,31.565,31.565,0,0,1,6.013-4.823c.087-.052-.029-.007.066-.037A3.494,3.494,0,0,0,27.76,7.586a12.63,12.63,0,0,1,.435-1.767c.081-.291.153-.6.5-.71a2.894,2.894,0,0,1,.828-.078q6.25,0,12.5,0a3.136,3.136,0,0,1,.826.07c.41.13.463.506.55.843.265,1.031.547,2.058.76,3.1a1.469,1.469,0,0,0,1.122,1.279,5.75,5.75,0,0,1,1.564.764.629.629,0,0,1,.163,1.075,45.034,45.034,0,0,1-3.764,4.063,6.987,6.987,0,0,1-4.07,1.694,17.012,17.012,0,0,1-2.805,0c-1.028-.074-1.175.008-1.554,1.011a10.344,10.344,0,0,1-3.341,4.619A7.173,7.173,0,0,1,26.964,25.1c-.455,0-.911-.011-1.366.008s-.883.143-.946.682c-.067.576.327.8.811.919a7.833,7.833,0,0,0,3.6-.189,9.668,9.668,0,0,0,5.778-4.161c.937-1.326.914-1.347,1.85-.018a9.679,9.679,0,0,0,8.245,4.486,1.506,1.506,0,0,1,1.326.841,12.167,12.167,0,0,0,5.493,4.627,8.121,8.121,0,0,0,5.038.593A3.621,3.621,0,0,0,59.726,29.3a9.569,9.569,0,0,0-.455-3.221,7.075,7.075,0,0,1,1.6-7.332c.635-.7.88-.76,1.693-.294a5.309,5.309,0,0,1,2.374,2.378c.183.406.593.622.761,1.027a33.235,33.235,0,0,1-2.592,11.753,26.208,26.208,0,0,1-3.624,5.925.732.732,0,0,1-.187.125,2.232,2.232,0,0,0-1.908.962,5.708,5.708,0,0,1-2.493,1.4c-.757.286-1.537.507-2.319.72s-1.006.525-.866,1.327a4.182,4.182,0,0,1-.421,2.508,11.473,11.473,0,0,1-2.111,3.139,3.838,3.838,0,0,0-.528.646.817.817,0,0,0,1.194,1.108,8.234,8.234,0,0,0,1.4-1.589,9.655,9.655,0,0,0,2.192-4.856,1.089,1.089,0,0,1,.941-1.032,12.693,12.693,0,0,0,1.576-.548c.25-.092.549-.306.776-.07.21.218.061.537-.018.8-.479,1.577-1.053,3.119-1.667,4.65a51.172,51.172,0,0,1-4.077,7.286,2.725,2.725,0,0,0-.423,1.5c.018,1.369.013,2.738,0,4.107,0,.315.091.671-.229.912" transform="translate(-4.674 -4.009)" fill="#fbd5cc"/>
        <path id="Trazado_680117" data-name="Trazado 680117" d="M138.429,17.852a1.8,1.8,0,0,1-.968-.995,5.807,5.807,0,0,0-2.75-2.515c-.312-.164-.45.012-.632.19a6.838,6.838,0,0,0-1.959,7.213,11.342,11.342,0,0,1,.54,3.055c.01,2.8-1.53,4.417-4.334,4.431a10.82,10.82,0,0,1-8.444-4.109c-.564-.646-.9-1.614-1.584-2s-1.679-.139-2.518-.285a9.944,9.944,0,0,1-6.622-4.55c-.2-.292-.381-.6-.591-.925-.3.147-.378.453-.535.689-2.317,3.5-5.476,5.309-9.746,4.866-.851-.088-1.245-.528-1.161-1.182.08-.622.512-.9,1.362-.864a8.457,8.457,0,0,0,8.962-6.313c.254-.788.636-.964,1.48-.869,2.964.332,5.708-.051,7.806-2.491.941-1.094,1.926-2.151,2.906-3.211.275-.3.384-.488-.083-.709a11.941,11.941,0,0,0-1.848-.856,1.247,1.247,0,0,1-.941-.981c-.334-1.4-.673-2.8-1.01-4.2-.267-.554.064-.884.483-1.1a1.147,1.147,0,0,1,1.4.212,1.889,1.889,0,0,1,.463.939c.209.807.416,1.615.6,2.427a1.371,1.371,0,0,0,.825,1,27.39,27.39,0,0,1,7,4.976,2.254,2.254,0,0,0,1.527.675,3.288,3.288,0,0,1,2.024.422A17.5,17.5,0,0,1,136,12.663a7.609,7.609,0,0,1,3.382,3.363c.494,1.04.2,1.6-.954,1.826" transform="translate(-77.405 0)" fill="#040405"/>
        <path id="Trazado_680118" data-name="Trazado 680118" d="M216.652,197.846c-.006-1.748,0-3.5-.024-5.245a2.231,2.231,0,0,1,.434-1.266,41.993,41.993,0,0,0,5.145-10.012c.28-.889.581-1.772.9-2.75-1.012.348-1.935.679-2.868.98-.271.087-.246.269-.262.47-.215,2.776-1.8,4.826-3.6,6.755a.976.976,0,0,1-1.483.089,1,1,0,0,1,.012-1.54,13.973,13.973,0,0,0,2.4-3.3,4.047,4.047,0,0,0,.474-2.92c-.186-.7.189-1.146,1-1.331a16.1,16.1,0,0,0,3.363-1.131,4.223,4.223,0,0,0,1.935-1.519c.376-.605.979-.5,1.551-.241a1.467,1.467,0,0,1,.247,1.412,45.321,45.321,0,0,1-6.673,15.549,2.777,2.777,0,0,0-.516,1.766c.043,1.239,0,2.481.016,3.721a1.08,1.08,0,0,1-.792,1.222,1.021,1.021,0,0,1-1.258-.706" transform="translate(-171.007 -139.226)" fill="#040405"/>
        <path id="Trazado_680119" data-name="Trazado 680119" d="M41.041,175.037c.828-.575,1.3-.478,1.869.357a5.369,5.369,0,0,0,2.577,1.785c.579.243,1.185.424,1.779.631.568.2.942.58.8,1.2a4.959,4.959,0,0,0,.85,3.743,15.156,15.156,0,0,0,1.861,2.487c.559.615.567,1.227.064,1.658s-1.048.354-1.592-.25c-1.484-1.648-2.917-3.389-3.21-5.649a2.043,2.043,0,0,0-1.689-2.032,5.515,5.515,0,0,1-.9-.421,30.056,30.056,0,0,0,1.778,5.892c1.018,2.428,2.4,4.671,3.581,7.017a2.471,2.471,0,0,1,.324,1.151c-.014,1.748-.016,3.5-.022,5.244a1.022,1.022,0,0,1-1.26.705,1.078,1.078,0,0,1-.789-1.225c.017-.912-.056-1.83.018-2.736a6.3,6.3,0,0,0-.923-3.738,38.967,38.967,0,0,1-4.29-9.821c-.38-1.547-.721-3.1-.966-4.674a1.7,1.7,0,0,1,.138-1.319" transform="translate(-32.549 -139.224)" fill="#040405"/>
        <path id="Trazado_680120" data-name="Trazado 680120" d="M9.529,11.515c1.1-.1,2.206-.2,3.31-.281.321-.024.478-.261.673-.447a30.473,30.473,0,0,1,7.1-5.362.844.844,0,0,0,.414-.666c.249-.977.481-1.958.726-2.936.141-.561.427-.983,1.077-.968.684.016.97.443,1.034,1.072q-.506,2.058-1.013,4.117a1.266,1.266,0,0,1-.687.939,26.77,26.77,0,0,0-7.435,5.54,2.683,2.683,0,0,1-1.937.826,18.189,18.189,0,0,0-8.575,2.124A4.765,4.765,0,0,0,2.06,17.742a1.612,1.612,0,0,1-.87.789c-1.151-.212-1.46-.786-.958-1.82a8.189,8.189,0,0,1,4.434-3.82,24.6,24.6,0,0,1,4.863-1.376" transform="translate(0 -0.681)" fill="#040405"/>
        <path id="Trazado_680121" data-name="Trazado 680121" d="M150.2,193.3c0,2.357.009,4.715,0,7.072-.005.966-.7,1.5-1.463,1.157a1.092,1.092,0,0,1-.631-1.113q0-7.11.005-14.219a1.049,1.049,0,0,1,1.022-1.176c.635-.014,1.063.443,1.067,1.209.012,2.357,0,4.714,0,7.072" transform="translate(-118.042 -147.467)" fill="#040405"/>
        <path id="Trazado_680122" data-name="Trazado 680122" d="M148.079,39.171c0-.48-.02-.961,0-1.44a.991.991,0,0,1,1.034-1.07.976.976,0,0,1,1.048,1.052c.03,1.01.027,2.022,0,3.032a1.041,1.041,0,1,1-2.081.017c-.03-.529-.006-1.061-.006-1.592" transform="translate(-118.02 -29.222)" fill="#040405"/>
        <path id="Trazado_680123" data-name="Trazado 680123" d="M161.825,50.77a11.946,11.946,0,0,0,3.263-.326,8.525,8.525,0,0,0,4.115-2.3c1.256-1.288,2.5-2.592,3.626-3.991.4-.5.676-.475,1.133-.092a36.093,36.093,0,0,1,3.065,2.721,2.339,2.339,0,0,0,1.808.78,20.1,20.1,0,0,1,4.494.618.524.524,0,0,1,.406.239,9.908,9.908,0,0,0-1.775,2.7,9.262,9.262,0,0,0-.241,6.177,8.419,8.419,0,0,1,.417,2.764,1.8,1.8,0,0,1-1.933,1.963,8.135,8.135,0,0,1-5.794-2.039,10.673,10.673,0,0,1-2.7-3.158,1.775,1.775,0,0,0-1.936-1.062c-3.579.253-6.077-1.466-7.812-4.48a1.943,1.943,0,0,1-.132-.273.97.97,0,0,1,0-.234" transform="translate(-128.98 -34.888)" fill="#dd4b41"/>
        <path id="Trazado_680124" data-name="Trazado 680124" d="M200.229,64.225a1.157,1.157,0,0,1-1.168.673c-.591-.091-.8-.546-.969-1.048a3.107,3.107,0,0,1,1.311-3.777,9.511,9.511,0,0,0,1.978-1.635,1.5,1.5,0,0,1,2.587.241,4.6,4.6,0,0,1,.588,3.574,9.821,9.821,0,0,1-1.143,2.881c-.31.556-.719.95-1.4.754s-.76-.738-.7-1.338a3.2,3.2,0,0,1,.55-1.393,5.833,5.833,0,0,0,.556-2.351,22.576,22.576,0,0,0-1.917,1.3.946.946,0,0,0-.222,1.116c.095.334.248.681-.043,1" transform="translate(-157.739 -46.074)" fill="#3b1b17"/>
        <path id="Trazado_680125" data-name="Trazado 680125" d="M235.552,81.145a4.375,4.375,0,0,1,1.257-3.41.931.931,0,0,1,1.365-.037.876.876,0,0,1,.219,1.285c-1.085,1.259-.77,2.648-.472,4.041.164.766.4,1.516.576,2.28a1.085,1.085,0,0,1-.814,1.458c-.618.114-1.047-.269-1.22-1.04a20.905,20.905,0,0,1-.911-4.577" transform="translate(-187.748 -61.707)" fill="#3b1b17"/>
        <path id="Trazado_680126" data-name="Trazado 680126" d="M208.364,74.548a2.32,2.32,0,0,0-.163-1.033,1.06,1.06,0,0,1,.52-1.411,9.649,9.649,0,0,0,1.814-1.348c.42.917,0,2.448-1.094,4.117l-1.077-.325" transform="translate(-165.874 -56.397)" fill="#ee731f"/>
      </g>
    </g>
  </g>
</svg>
